<svg xmlns="http://www.w3.org/2000/svg" aria-hidden="true" style="position:absolute;width:0;height:0;overflow:hidden">
  <defs>
    <symbol id="icon-Logo" viewBox="0 0 45 32">
      <path d="M31.526 3.82c0 .214.238.354.648.371.326.018.504-.049.557-.21.042-.119.004-.165-.175-.189-.123-.014-.144-.007-.196.091-.045.081-.084.109-.158.109-.172 0-.256-.042-.312-.144-.046-.088-.07-.102-.207-.102s-.158.01-.158.074zM29.485 4.331c-.011.018.017.305.067.641l.084.62c0 .007.07.011.158.011h.154l.326-.399.326-.403.021.147c.014.081.035.252.046.382l.028.238h.189c.224 0 .214.056.137-.683-.028-.27-.053-.511-.053-.536 0-.028-.06-.042-.186-.042H30.6l-.231.27c-.126.151-.266.326-.315.389l-.084.119-.053-.382-.053-.378-.182-.011c-.098-.007-.186.003-.196.018zM31.484 4.331c-.038.011-.063.049-.063.091.003.091.06.697.091.959l.021.186h.158c.154 0 .165-.007.494-.357l.34-.354.025.343c.017.221.042.354.07.371a.489.489 0 0 0 .2.032h.151l-.025-.588c-.017-.371-.038-.595-.067-.609a.474.474 0 0 0-.182-.028c-.137 0-.161.018-.48.343l-.333.347-.024-.347c-.014-.21-.042-.354-.067-.361a.912.912 0 0 0-.308-.028zM28.641 4.373c-.011.018-.003.112.014.214.021.102.035.214.035.249 0 .088-.109.14-.305.144-.2.003-.273-.07-.305-.312-.042-.277-.049-.291-.179-.291a.665.665 0 0 0-.203.032l-.088.035.06.273c.081.357.119.424.294.504.175.077.361.084.609.018l.179-.049.021.13c.063.347.042.322.242.312l.182-.011-.007-.158a8.57 8.57 0 0 0-.084-.641l-.074-.48h-.189c-.102 0-.193.014-.203.032zM26.526 4.499c-.375.084-.56.256-.508.48a.474.474 0 0 0 .298.291l.098.024-.084.102c-.074.088-.161.361-.161.504 0 .06.193.07.329.018.07-.024.095-.07.13-.245.046-.238.147-.35.315-.35.091 0 .098.014.137.2.06.315.049.301.245.284.098-.011.186-.028.196-.035.017-.021-.221-1.243-.256-1.299-.024-.042-.501-.024-.739.028zm.392.287.038.175c.021.109.021.112-.14.137-.186.024-.308-.014-.368-.126-.032-.06-.024-.084.049-.158.112-.109.389-.126.42-.028zM34.239 4.548c-.126.018-.14.032-.14.126 0 .084.014.102.07.095.038-.007.168-.018.287-.018.179-.007.231.007.291.067.144.144.004.235-.333.214-.112-.007-.14.007-.151.06-.017.084.049.126.196.126s.354.084.382.158c.063.165-.308.221-.602.091-.137-.06-.154-.06-.172-.014-.07.175.238.308.704.308.235 0 .305-.014.385-.074.182-.137.123-.417-.105-.49-.06-.018-.056-.028.042-.088.13-.077.161-.14.13-.259-.053-.207-.578-.368-.984-.301zM25.346 4.656c-.914.151-.893.144-.893.245a.3.3 0 0 0 .049.158c.042.06.067.063.245.032l.196-.038.053.179c.024.098.088.326.137.508.046.182.102.343.119.361.032.032.305-.014.347-.056.014-.011-.035-.245-.109-.518-.07-.277-.126-.511-.126-.525s.088-.035.193-.045c.105-.014.2-.038.21-.053a.358.358 0 0 0-.021-.151c-.038-.144-.06-.147-.399-.095zM35.78 4.793c-.084.018-.109.042-.116.123l-.014.102.224-.021c.361-.038.623.067.623.249 0 .067-.014.081-.06.063a1.715 1.715 0 0 0-.326-.045c-.315-.024-.504.038-.56.186-.053.14.049.329.228.417.151.074.487.095.658.038.074-.021.095-.018.095.024 0 .053.098.095.231.095.07 0 .077-.024.098-.256.042-.448.035-.613-.032-.711-.074-.116-.287-.21-.578-.256-.245-.042-.312-.042-.473-.007zm.7.707c.007.007.004.056-.007.109-.014.074-.045.105-.14.13-.172.049-.375-.021-.389-.133-.007-.045.007-.098.035-.116.042-.028.469-.018.501.011zM21.215 4.961c-.326.084-.609.172-.63.189-.021.021-.011.116.028.27.228.886.263 1.547.077 1.547-.081 0-.063.091.098.49.147.357.154.368.256.357a.556.556 0 0 0 .179-.06l.077-.053-.088-.21a1.38 1.38 0 0 1-.084-.256c0-.042 1.316-.469 1.348-.438.007.007.053.116.095.238.081.221.088.228.2.217.256-.021.259-.032.112-.469l-.133-.396-.147.011a.428.428 0 0 1-.144-.007c0-.07-.536-1.547-.567-1.569-.056-.035.021-.049-.676.137zm.462.504c.046.123.154.417.235.655l.154.427-.2.056a7.498 7.498 0 0 0-.578.175c-.063.024-.067.014-.046-.13.024-.186-.024-.606-.116-.987a1.587 1.587 0 0 1-.056-.294c.021-.024.459-.144.49-.137.017.003.07.109.116.235zM23.89 4.905c-.07.028-.133.123-.287.445a7.64 7.64 0 0 0-.217.494c-.035.116-.06.07-.193-.361l-.123-.378-.168.018a.514.514 0 0 0-.2.045c-.053.053.396 1.393.469 1.407a.424.424 0 0 0 .172-.024c.102-.035.133-.081.34-.55.123-.28.231-.497.235-.48.007.014.063.2.126.413l.119.385.151-.007c.231-.011.238-.035.133-.424-.161-.588-.266-.949-.291-.987-.028-.042-.144-.042-.266.003zM37.306 5.57c-.028.326-.032.508-.011.529s.109.045.193.053l.161.018.025-.21.021-.21.109.032c.151.042.224.123.301.326.063.175.07.179.263.228a.927.927 0 0 0 .217.032c.032-.035-.196-.48-.284-.546l-.091-.07.081-.024c.081-.024.378-.291.378-.336 0-.035-.207-.102-.315-.102-.067 0-.133.042-.221.144-.112.123-.144.14-.259.13l-.133-.011.011-.203c.011-.189.007-.203-.081-.235a.66.66 0 0 0-.207-.035h-.116l-.042.494zM39.295 5.626c-.175.483-.231.564-.424.602-.098.021-.116.038-.116.126 0 .095.014.105.137.126a.75.75 0 0 0 .252-.007c.144-.042.336-.256.417-.462.067-.175.088-.186.259-.126.13.045.133.088.053.466-.032.144-.049.284-.038.312.017.049.298.14.343.109.038-.021.182-.844.161-.903-.011-.028-.112-.081-.224-.109-.112-.032-.326-.098-.476-.144s-.28-.084-.291-.084c-.007 0-.032.042-.053.095zM14.304 6.036c-.039.045-.459 1.365-.984 3.084l-.308.998a39.944 39.944 0 0 0-.392 1.33c-.263.984-.221.893-.41.963-.21.077-.935.455-1.547.802a7.555 7.555 0 0 1-.487.266c-.056 0-1.512.998-1.512 1.036 0 .056.018.06.648.154.27.042.56.098.644.126.088.024.214.049.28.049h.126l-.424.427c-1.404 1.425-2.269 2.71-2.703 4.009-.301.893-.308 1.845-.024 2.829.21.721.571 1.355 1.18 2.066 1.11 1.295 2.664 2.332 4.422 2.948.193.067.368.147.389.172a.753.753 0 0 1 .063.27c.039.35.049.375.165.375.06 0 .102-.017.102-.046 0-.024.028-.098.063-.165a.933.933 0 0 0 .088-.214l.024-.091.462.137c1.589.459 3.137.7 5.122.802 2.055.102 5.955-.228 8.756-.739 1.814-.333 3.963-.868 6.029-1.509 2.08-.644 3.718-1.341 5.714-2.43.231-.126.424-.228.434-.228.042 0 .931-.55 1.295-.798 1.159-.791 1.786-1.288 2.335-1.849.452-.466.676-.763.844-1.12.105-.224.116-.27.116-.592 0-.315-.011-.368-.098-.536-.137-.263-.34-.469-.672-.69-.84-.56-1.695-.837-3.235-1.05-.445-.06-1.425-.158-1.596-.158h-.112l.017.287c.007.161.021.294.025.301.007.007.28.06.609.112.623.105.98.21 1.239.361.392.231.721.602.889 1.005.084.203.095.27.095.63 0 .462-.056.648-.301 1.019-.497.742-2.034 1.975-3.449 2.755a29.639 29.639 0 0 1-4.807 2.115c-1.999.679-4.821 1.25-6.88 1.397-.77.053-2.85.021-3.571-.053a29.685 29.685 0 0 1-2.486-.34c-1.19-.207-2.65-.56-2.64-.641.011-.088-.007-.13-.102-.238-.056-.063-.256-.417-.445-.781-.189-.368-.41-.791-.49-.945l-.42-.805c-.151-.291-.371-.718-.494-.949a4.906 4.906 0 0 1-.224-.459c0-.032.42-.732.872-1.463.203-.329.245-.277.354.473.042.28.095.627.123.77s.091.557.144.917c.091.616.126.746.165.595.049-.182.109-.431.217-.917.067-.298.214-.959.333-1.47l.284-1.26c.102-.462.119-.473.371-.242.221.207 1.033.991 1.821 1.765.581.567.585.567.364-.13-.074-.238-.21-.7-.301-1.026-.102-.371-.189-.616-.228-.648a.466.466 0 0 1-.098-.123c-.102-.203-.777-2.125-.777-2.216 0-.081.077-.207.322-.522.175-.228.399-.515.497-.641l.546-.7c.203-.259.525-.679.714-.928.193-.252.389-.504.438-.564.172-.21.21-.256.266-.343.035-.049.053-.091.046-.091-.06 0-1.4.557-2.713 1.124-.35.154-.672.28-.714.287-.091.007-.119-.07-.154-.438-.011-.14-.035-.389-.053-.553s-.042-.41-.056-.543a31.841 31.841 0 0 0-.07-.711c-.084-.784-.13-.669.466-1.166.284-.238.539-.459.571-.487.028-.028.266-.235.525-.455.571-.483.574-.487.546-.515-.017-.018-.144.011-.774.186-.742.207-2.206.693-2.783.924-.203.081-.62.249-.928.368-.308.123-.669.27-.805.326-.133.06-.256.098-.27.084-.011-.014-.056-.42-.095-.9l-.126-1.435a144.521 144.521 0 0 1-.196-2.241 6.525 6.525 0 0 0-.053-.515c-.028-.045-.109-.032-.151.021zm.133 1.054c.063 1.134.266 3.554.347 4.082l.024.161.438-.2c.854-.392 2.685-1.092 3.326-1.274.235-.07 1.481-.441 1.533-.459.088-.031.032.018-.368.319a31.735 31.735 0 0 0-2.479 2.048c-.711.648-1.908 1.873-1.908 1.954 0 .137.301.998.704 2.006.231.578.413 1.061.403 1.068-.014.014-1.218-.557-2.206-1.043l-.448-.224-.084.102c-.238.273-1.351 1.898-2.062 3.004-.133.207-.245.371-.249.368s.053-.466.13-1.022l.28-2.094c.077-.595.137-1.085.13-1.096a84.561 84.561 0 0 0-2.612-.28c-.158-.014-.298-.035-.305-.053-.024-.035.798-.588 1.4-.938.27-.158.847-.469 1.285-.69.697-.35.802-.413.819-.497.322-1.348.483-1.908 1.155-4.033.693-2.188.655-2.076.683-2.024.011.024.042.392.063.816zm3.799 4.296c.011.063.042.399.074.746.067.77.221 2.045.256 2.122.021.049.098.021.532-.193.879-.438 2.629-1.148 2.685-1.092.011.011-.091.14-.224.291-.907 1.012-2.391 2.969-2.391 3.154 0 .038 1.208 3.862 1.281 4.051.017.038-.473-.434-1.085-1.047-.683-.686-1.124-1.103-1.145-1.082-.038.038-.469 1.74-.735 2.906-.102.448-.196.816-.207.816-.017 0-.245-1.828-.301-2.416-.021-.224-.017-.231.147-.501.091-.147.175-.27.189-.27s.038.165.053.368c.014.203.035.368.049.368s.046-.084.067-.186c.165-.711.375-1.425.469-1.582.088-.144.098-.186.063-.238-.084-.14.053-.021.763.648l.735.69-.119-.375c-.063-.207-.252-.791-.413-1.302l-.298-.928.301-.455a24.63 24.63 0 0 1 1.211-1.656c.13-.158.221-.287.207-.287-.056 0-.861.375-1.509.697-.354.179-.648.315-.655.308-.024-.024-.245-1.677-.308-2.279a5.734 5.734 0 0 0-.067-.532c-.017-.018-.238 1.085-.336 1.684-.07.41-.214 1.474-.214 1.575 0 .046-.105.119-.693.497l-.182.119-.07-.161c-.038-.091-.07-.186-.07-.21s.13-.13.291-.231c.158-.098.294-.186.298-.193a6.38 6.38 0 0 0 .084-.546c.084-.676.238-1.575.382-2.241l.112-.515.354-.315c.193-.172.364-.315.378-.319.014 0 .032.053.042.112zm-.974.815c.017.046-.112.924-.249 1.681-.028.154-.084.483-.123.732s-.088.473-.109.497c-.056.067-.511.329-.571.329-.028 0-.07-.031-.088-.067a36.173 36.173 0 0 1-.599-1.604c0-.056 1.596-1.621 1.656-1.621.032 0 .07.024.081.053zm-5.605 3.106c-.007.287-.063.781-.245 2.111-.27 1.985-.28 2.125-.189 2.146.056.011.203-.2 1.232-1.779.242-.371.364-.525.41-.525.035 0 .077.014.088.035.011.017-.004.417-.031.882l-.077 1.288a6.625 6.625 0 0 1-.046.585l-.021.151-.942.63c-.518.347-.966.63-.991.63-.028 0-.095.035-.151.077s-.112.07-.119.06c-.109-.116-.427-.616-.539-.844-.385-.784-.48-1.607-.287-2.493.161-.742.581-1.74.987-2.349.193-.291.798-.928.882-.928.039 0 .046.07.039.322zm2.402 1.204c.07.343.224 1.092.343 1.66s.214 1.043.214 1.057c0 .014.445-.196.991-.462.903-.445 1.334-.637 1.842-.837l.186-.074-.081.13c-.046.074-.161.259-.259.413-.322.497-1.467 2.398-1.719 2.843l-.102.186.55 1.092c.301.602.742 1.467.977 1.915.371.714.413.812.326.756-.056-.035-.536-.35-1.064-.693a73.158 73.158 0 0 1-1.306-.872c-.189-.137-.354-.238-.361-.228-.011.007-.119.375-.242.816-.56 1.999-.854 3.035-.872 3.053-.011.011-.021-.021-.021-.067s-.056-.644-.123-1.327c-.067-.683-.165-1.677-.214-2.206a47.013 47.013 0 0 0-.102-.973c-.049-.056-1.341-.326-2.153-.448-.315-.049-.581-.091-.588-.102-.018-.017.539-.403 1.695-1.166l.987-.655.021-.525c.074-1.635.196-2.986.287-3.13.193-.301.588-.809.62-.798.021.007.098.294.168.641zm.557-.374c.182.095.336.193.343.221.011.056-.497.518-.571.518-.07 0-.102-.074-.193-.459-.126-.518-.091-.543.42-.28zm1.281.686c.795.385.788.382.914.235.035-.042.063-.042.196.011.175.067.2.126.2.501v.182l-.182.084-.186.081-.024-.074a1.45 1.45 0 0 1-.024-.238c-.003-.158-.011-.172-.133-.224-.245-.102-.97-.298-1.446-.389a19.609 19.609 0 0 1-.518-.102c-.028-.007.056-.102.193-.224.13-.116.242-.21.245-.21s.347.165.767.368zm-.55.35c.224.049.539.123.704.172.165.046.364.102.445.123.175.049.207.095.238.357.017.151.014.207-.021.228-.028.017-.466.231-.977.473-.693.333-.942.434-.987.413-.031-.017-.07-.091-.084-.165-.011-.07-.084-.466-.161-.875s-.13-.77-.119-.802c.018-.046.063-.053.287-.032.147.014.452.063.676.109zm-3.245 5.549c.14.035.249.046.27.024.024-.024.399.06.459.109.028.021.021.602-.007.602-.039 0-.938-.609-1.078-.732l-.123-.105.123.021c.067.011.228.046.357.081zm3.406 1.513c.375.252.683.483.683.508s.038.063.088.081c.088.032.998.627.998.648 0 .056-1.765-.609-2.367-.893-.354-.168-.364-.172-.329-.259a.416.416 0 0 0 .014-.186c-.028-.137.074-.361.161-.361.039 0 .378.207.753.462z"/>
      <path d="M13.856 9.103c-.28.917-.553 1.919-.791 2.867l-.186.746-.942.48c-.522.263-1.131.588-1.355.721l-.41.245.392.042c.214.021.725.077 1.134.119l.742.077-.018.091-.172 1.351a52.97 52.97 0 0 1-.175 1.302c-.007.024-.011.046-.004.046.011 0 .21-.28.445-.623.322-.462.998-1.4 1.134-1.575.004-.004.455.214.998.483.546.266 1.001.483 1.008.473.007-.007-.081-.256-.196-.55a21.13 21.13 0 0 1-.55-1.614l-.056-.203.35-.375c.753-.809 2.101-2.094 2.724-2.594a.61.61 0 0 0 .14-.133c-.017-.014-.938.319-1.505.546-.501.2-1.39.599-1.817.812-.154.077-.287.133-.294.126-.021-.021-.214-1.803-.277-2.58-.095-1.138-.07-1.117-.322-.28z"/>
      <path d="M17.101 12.254c-.024.042-.024.07-.003.07.017 0 .046.035.06.077.024.074.028.07.053-.042.038-.179-.032-.249-.109-.105zM11.528 15.447c-.053.039-.053.053-.011.112.046.06.053.06.074.011a.237.237 0 0 0 .007-.112c-.007-.046-.021-.049-.07-.011zM12.795 17.362c-.042.084-.046.147-.004.077.024-.035.039 0 .056.123.035.266.046.263.049-.014.004-.252-.031-.315-.102-.186zM13.59 17.302c-.098.963-.2 2.563-.2 3.168 0 .063-.186.203-.998.735-.55.364-.998.669-.998.683 0 .017.031.028.067.028.116 0 .77.137 1.372.287l.585.144.021.179c.011.098.053.518.091.931.109 1.159.151 1.544.161 1.533.018-.017.609-2.174.609-2.22 0-.109.095-.067.55.259.266.189.7.49.966.665l.48.326-.651-1.302c-.357-.718-.641-1.32-.63-1.351.024-.06 1.05-1.789 1.33-2.244.105-.168.182-.312.172-.322-.007-.011-.504.231-1.099.532-.686.347-1.092.536-1.099.508a66.053 66.053 0 0 1-.329-1.561 72.665 72.665 0 0 0-.329-1.53c-.007-.011-.039.242-.07.553zM16.513 17.579c.053.046.112.14.13.207.035.119.035.116.017-.035-.024-.179-.032-.193-.154-.228l-.084-.028.091.084zM16.632 17.978c-.011.028-.003.053.011.053.017 0 .038-.024.053-.053.011-.028.003-.053-.011-.053-.017 0-.038.024-.053.053z"/>
      <path d="M14.735 23.835c.014.024.042.042.06.042.042 0 .354.207.389.259.014.021.035.028.046.014.014-.011-.074-.088-.189-.165-.235-.161-.347-.214-.305-.151zM15.55 24.364c.06.06.119.137.13.168.024.067.375.238.445.214.021-.007-.06-.077-.182-.151-.123-.077-.235-.137-.249-.133-.014.007-.028-.003-.028-.021s-.053-.07-.112-.112l-.116-.077.112.112zM40.811 6.151c.011.095.021.098.249.123.301.028.494.123.508.249.014.116-.011.116-.301.024-.42-.133-.672-.077-.672.147 0 .214.347.424.711.427.133.003.2.018.2.045 0 .045.266.14.301.109.035-.035.154-.532.154-.644a.386.386 0 0 0-.07-.2c-.13-.165-.676-.375-.973-.375-.105 0-.116.007-.105.095zm.553.585c.095.035.123.063.123.13 0 .07-.017.084-.13.095-.238.021-.466-.14-.354-.249.035-.038.224-.024.361.024zM42.659 6.929c-.175.249-.287.333-.445.326-.102-.003-.116.007-.147.126-.091.34-.091.319.045.375.175.074.189.07.235-.088.049-.165-.011-.172.651.084.347.133.462.193.448.231-.067.231-.063.238.07.294.074.031.144.056.158.056s.06-.091.102-.203c.07-.182.074-.203.021-.235-.179-.109-.175-.091-.07-.396.053-.154.088-.305.077-.333-.014-.038-.49-.256-.949-.431-.032-.011-.105.06-.196.193zm.596.164c.081.032.137.077.13.098l-.077.231a7.892 7.892 0 0 1-.07.203c-.007.007-.14-.038-.298-.102l-.287-.109.105-.063c.056-.035.151-.123.203-.189.116-.147.109-.144.294-.07zM32.902 7.272c-.06.007-.116.035-.126.056-.035.091.045 1.124.091 1.152.07.046.732.028.875-.021.207-.077.27-.151.27-.322 0-.119-.017-.165-.091-.221a.375.375 0 0 0-.151-.077c-.038 0-.032-.011.021-.032a.372.372 0 0 0 .137-.123c.077-.119.017-.266-.14-.343-.123-.056-.676-.102-.886-.07zm.672.276c.032.032.049.074.042.098-.021.067-.175.126-.329.126h-.151v-.28h.189c.13 0 .21.018.249.056zm.039.473c.074.063.045.179-.056.231a.628.628 0 0 1-.245.039l-.158-.011-.021-.343.214.021c.116.011.238.038.266.063zM31.386 7.321c-.329.133-.455.567-.273.935.119.242.259.322.571.322.308 0 .455-.046.606-.186.14-.133.196-.333.165-.567-.049-.382-.263-.543-.718-.539-.144 0-.301.018-.35.035zm.525.259c.186.095.228.504.07.662-.102.105-.357.102-.462-.004-.091-.091-.133-.441-.063-.567.074-.14.28-.182.455-.091zM29.985 7.391a1.504 1.504 0 0 0-.2.119c-.109.084-.112.084-.133.018-.021-.07-.158-.095-.273-.053-.053.021-.056-.007.147 1.267.042.252.074.476.074.497 0 .042.147.049.273.014.091-.021.088.018.021-.487l-.024-.161.098.063c.126.081.399.077.55-.011.399-.228.347-1.033-.084-1.257a.654.654 0 0 0-.448-.011zm.326.388a.62.62 0 0 1 .088.28c.011.151 0 .203-.063.28-.091.119-.245.13-.406.031-.098-.06-.112-.091-.133-.287-.024-.221-.024-.224.084-.322.144-.13.329-.123.431.018zM34.593 7.394a6.812 6.812 0 0 0-.067.336c-.063.333-.126.455-.273.508-.077.031-.102.063-.102.133 0 .144.074.182.245.137.245-.067.385-.266.466-.672.028-.13.063-.221.088-.217s.091.007.151.007l.109.007-.011.438c-.011.34-.004.441.032.455.091.035.291.018.301-.028.011-.021.025-.266.035-.543.021-.595.067-.546-.546-.585-.333-.021-.417-.014-.427.024zM36.238 7.527c-.224.07-.336.256-.336.564 0 .203.007.224.133.347a.767.767 0 0 0 .287.179c.154.042.711.067.746.031a.257.257 0 0 0 .032-.105c.011-.088.011-.088-.294-.091-.224 0-.326-.018-.392-.063-.088-.056-.182-.221-.147-.256.007-.007.207.011.441.039.238.031.445.046.459.035.017-.011.032-.098.032-.196 0-.158-.014-.189-.13-.308-.182-.182-.55-.259-.83-.175zm.519.249c.119.095.13.252.014.228a2.737 2.737 0 0 0-.28-.038c-.221-.024-.245-.056-.126-.182.095-.102.266-.105.392-.007zM28.084 7.611a.675.675 0 0 0-.364.315c-.067.13-.063.452.007.651.105.294.287.42.606.42.525 0 .798-.263.77-.732-.017-.28-.102-.466-.266-.592-.102-.077-.165-.095-.371-.102a1.088 1.088 0 0 0-.382.038zm.462.287c.109.077.179.256.179.459 0 .21-.07.315-.231.347-.259.049-.434-.144-.434-.48 0-.105.021-.217.046-.249.109-.137.305-.172.441-.077zM37.541 8.182c-.028.298-.035.501-.017.525s.102.046.182.046h.147l.017-.175a.757.757 0 0 1 .038-.196c.025-.024.511.056.529.088a.717.717 0 0 1-.014.189c-.028.193.011.235.217.235h.116l.077-.466c.042-.252.063-.476.045-.494a.488.488 0 0 0-.186-.045l-.158-.018-.049.364-.165-.024a6.951 6.951 0 0 1-.277-.042l-.119-.021.049-.399-.112-.024c-.28-.053-.266-.074-.322.459zM26.582 7.905c-.224.049-.417.105-.424.126s0 .172.017.336c.046.441-.003.788-.116.816-.081.021-.084.095-.017.326.028.095.07.238.091.322.038.147.042.151.151.13.186-.042.196-.067.14-.301a.705.705 0 0 1-.038-.228c.028-.024.84-.224.921-.224.06 0 .081.039.119.214l.049.214.137-.018a.767.767 0 0 0 .158-.035 2.263 2.263 0 0 0-.063-.371l-.081-.354h-.224l-.095-.413c-.137-.602-.151-.637-.238-.634a6.69 6.69 0 0 0-.487.095zm.273.347.102.399.077.301-.256.067c-.144.035-.263.056-.266.046a3.653 3.653 0 0 1 0-.424l.014-.413.109-.031c.175-.049.196-.046.221.056zM39.319 8.06c-.038.119-.161.914-.144.931a.522.522 0 0 0 .182.021l.165.004.028-.154c.014-.084.032-.158.038-.168.014-.014.518.088.539.109a.543.543 0 0 1-.028.179c-.035.133-.032.172.004.193.06.035.28.081.301.06a5.99 5.99 0 0 0 .109-.441c.063-.294.081-.438.056-.462a.419.419 0 0 0-.179-.056c-.137-.018-.14-.014-.165.098-.049.245-.025.235-.333.158-.224-.053-.277-.081-.266-.123a1.22 1.22 0 0 0 .038-.186c.025-.137.025-.137-.221-.186-.077-.018-.116-.011-.126.024zM24.835 8.277c-.34.119-.452.263-.333.424.046.06.053.06.182-.042.175-.14.312-.172.42-.098.046.028.084.084.084.123 0 .084-.151.203-.301.231-.091.018-.119.039-.119.098 0 .158.046.175.277.126.196-.042.221-.039.287.021.095.084.074.217-.049.308-.081.06-.144.07-.326.067-.123-.004-.224 0-.224.011s.024.07.049.137c.049.116.06.123.228.123.459 0 .851-.315.784-.63-.024-.13-.196-.28-.319-.28h-.088l.07-.081a.445.445 0 0 0 .091-.161c.028-.109-.053-.294-.154-.368-.098-.067-.382-.074-.56-.007zM40.979 8.613c-.098.098-.088.189.035.294l.109.088-.116.049c-.133.06-.329.252-.28.28.017.014.098.035.179.056.144.031.158.028.284-.088.095-.088.165-.119.249-.119.193 0 .217.035.172.21-.032.119-.032.158.004.179.056.035.28.077.301.056.021-.024.221-.725.221-.781 0-.063-.14-.133-.459-.221-.343-.095-.602-.098-.697-.004zm.616.143c.161.042.193.105.119.242-.032.063-.045.063-.189.014a.614.614 0 0 1-.217-.123c-.063-.07-.063-.074.004-.123.081-.06.084-.06.284-.011zM23.508 8.662c-.406.109-.581.333-.553.721.028.368.207.697.455.826.14.074.385.06.599-.031.438-.196.553-.616.308-1.134-.112-.235-.193-.315-.378-.382-.161-.056-.228-.056-.431 0zm.312.357c.109.077.249.399.249.571 0 .109-.021.154-.109.228-.133.116-.315.123-.42.018-.175-.175-.27-.606-.161-.739.109-.137.305-.172.441-.077zM33.367 10.171c-.294.105-.431.354-.396.711.035.34.217.497.567.497.329-.004.588-.151.679-.396.056-.151.045-.462-.021-.602-.109-.231-.497-.329-.83-.21zm.452.28c.074.07.088.119.088.291 0 .266-.098.392-.308.392-.189 0-.263-.088-.28-.35-.014-.193-.007-.214.091-.315.137-.133.291-.14.41-.018zM34.481 10.171c-.014.028-.014.165-.007.298.017.357.074.403.483.403h.315v.368h.305l.025-.322c.011-.175.021-.427.021-.56v-.238h-.308l-.025.235c-.014.133-.042.249-.067.263-.063.042-.319.031-.364-.014-.025-.024-.042-.137-.042-.263v-.221h-.158c-.112 0-.165.018-.179.053zM36.021 10.146c-.025.014-.049.228-.067.557l-.025.536h.133c.123 0 .165-.028.462-.326l.326-.322-.025.322-.025.326h.165c.088 0 .161-.011.161-.028 0-.014.025-.231.053-.48.028-.252.053-.476.053-.501 0-.028-.053-.042-.154-.042-.151 0-.175.014-.48.305l-.322.308.028-.312c.017-.245.014-.315-.021-.34-.06-.039-.21-.039-.263-.004zM29.072 10.255c-.07.056-.077.077-.046.182.032.109.046.119.172.116.161-.007.238-.088.203-.221-.038-.158-.186-.193-.329-.077zM31.999 10.286c-.438.053-.49.067-.504.13-.011.067.046.749.088 1.04.017.123.028.133.13.133.203 0 .207-.011.161-.522-.021-.256-.032-.473-.021-.483s.123-.028.245-.035l.224-.018.021.27c.014.151.025.347.025.434 0 .224.035.263.193.238a.63.63 0 0 0 .147-.035 6.781 6.781 0 0 0-.032-.606c-.042-.55-.049-.592-.116-.599-.038 0-.291.021-.56.053zM37.621 10.297c-.042.098-.14.935-.116.959a.462.462 0 0 0 .168.018h.147l.025-.193.021-.193h.182c.319 0 .34.014.315.217-.014.13-.007.182.028.207.063.039.231.042.256 0 .032-.049.165-.921.147-.942a.452.452 0 0 0-.168-.021l-.147-.004-.032.179-.028.182-.235-.018c-.13-.011-.245-.028-.259-.042-.011-.011-.011-.098.004-.189.017-.091.017-.172.007-.179-.011-.011-.081-.024-.151-.039-.116-.021-.137-.014-.165.056zM30.511 10.5a2.39 2.39 0 0 0-.375.084c-.032.021-.046.137-.046.371 0 .403-.07.686-.179.721-.077.024-.077.046.011.515.035.186.046.203.13.203.161 0 .182-.035.144-.263a1.497 1.497 0 0 1-.024-.214c.017-.018.795-.189.858-.189.056 0 .07.031.088.196.011.109.028.203.035.214.011.007.07 0 .133-.018.116-.028.119-.039.112-.186-.007-.084-.017-.238-.032-.34-.017-.172-.024-.182-.119-.182-.112 0-.109.004-.175-.578a2.92 2.92 0 0 0-.06-.378c-.021-.035-.112-.028-.501.042zm.238.605c.032.256.032.364.003.378-.049.031-.417.116-.434.098-.007-.004.011-.098.038-.203s.049-.28.049-.392c0-.189.003-.2.098-.214.214-.031.203-.049.245.333zM39.193 10.44c0 .007-.038.217-.084.473-.091.511-.091.501.137.501.112 0 .116-.004.14-.179.028-.193.063-.228.203-.175.067.028.105.081.151.228.06.189.063.193.214.217.084.011.165.014.175 0 .042-.042-.074-.347-.172-.445-.098-.095-.098-.102-.028-.102.081 0 .417-.294.378-.333a.514.514 0 0 0-.165-.056c-.14-.031-.147-.028-.294.126-.119.126-.179.158-.27.158-.123 0-.123-.004-.053-.287.017-.074.007-.091-.06-.112-.081-.021-.273-.028-.273-.014zM40.489 10.689c0 .028.056.252.123.501l.123.455a.95.95 0 0 1-.109.133c-.06.07-.098.14-.084.161.011.018.095.035.186.035.151-.004.172-.014.277-.151.063-.081.256-.305.431-.494.175-.193.312-.368.305-.385-.007-.021-.074-.053-.147-.07-.147-.035-.158-.024-.476.361l-.126.154-.067-.322c-.07-.347-.084-.364-.305-.406-.102-.021-.13-.014-.13.028zM29.233 10.738a.35.35 0 0 0-.102.046c-.014.018.021.312.088.662.116.63.116.634.207.634a.3.3 0 0 0 .158-.049c.063-.046.063-.056.003-.41l-.095-.557c-.063-.375-.06-.375-.259-.326zM28.011 10.993c-.333.105-.326.074-.158.791.081.343.161.641.175.658.017.021.109.014.231-.011.571-.126.816-.368.714-.707-.032-.105-.074-.154-.161-.196-.105-.049-.116-.067-.074-.112a.628.628 0 0 0 .07-.123c.032-.091-.038-.294-.119-.336-.102-.053-.452-.035-.679.035zm.437.211c.038.021.067.074.067.126 0 .07-.032.102-.147.154a.799.799 0 0 1-.193.07c-.038 0-.137-.27-.109-.298.011-.014.238-.081.284-.084.017-.004.06.014.098.031zm.211.616c.046.13-.035.245-.214.298-.168.053-.196.031-.228-.168-.021-.137-.014-.154.06-.182a.605.605 0 0 1 .214-.035c.112-.004.137.011.168.088zM26.19 11.547a1.36 1.36 0 0 0-.308.179c-.123.105-.137.133-.119.228.035.172.077.186.203.063.154-.144.357-.231.445-.182a.289.289 0 0 1 .105.14c.032.091.028.112-.024.13-.357.119-.567.319-.567.539 0 .27.172.487.385.487.133 0 .312-.109.389-.231.067-.112.077-.116.119-.063.038.053.056.056.154.018a.815.815 0 0 0 .109-.056c0-.049-.252-.949-.291-1.04-.105-.245-.305-.315-.599-.21zm.448.854c.038.147.021.228-.067.322-.147.158-.333.095-.333-.112 0-.077.119-.2.245-.249.123-.049.13-.049.154.039zM24.979 12.03a4.039 4.039 0 0 0-.434.189c-.038.039.035.315.081.315a.758.758 0 0 0 .161-.056c.074-.028.144-.042.158-.024.014.014.102.259.196.543.095.287.186.518.207.518a.595.595 0 0 0 .147-.067l.112-.07-.067-.203a45.78 45.78 0 0 0-.172-.532c-.056-.182-.098-.343-.091-.354a.536.536 0 0 1 .154-.07c.081-.024.144-.067.144-.088 0-.105-.081-.263-.133-.263a4.126 4.126 0 0 0-.462.161zM38.248 12.712c0 .329.252.522.679.525.329.004.571-.119.718-.354.112-.186.098-.21-.102-.21-.137 0-.175.011-.175.056 0 .031-.053.109-.119.175-.105.105-.14.119-.294.119-.235 0-.368-.105-.371-.291-.004-.095-.017-.13-.06-.13-.032 0-.109-.011-.168-.021-.109-.021-.109-.021-.109.13zM37.989 12.902c.014.077.021.175.021.217 0 .056.021.081.067.081.067 0 .067-.004.011-.116a1.02 1.02 0 0 1-.088-.217c-.025-.081-.025-.074-.011.035zM33.395 13.434c.007.056.028.193.038.308s.045.333.074.487c.028.151.049.319.049.371v.095l-.585.06c-.326.035-.644.07-.714.081l-.126.018-.06-.238c-.032-.133-.095-.452-.14-.707s-.091-.473-.102-.483c-.007-.011-.095-.014-.189-.007l-.175.011.098.501c.109.564.196.938.368 1.6.063.249.172.714.242 1.033s.133.581.137.585a.882.882 0 0 0 .154-.032c.088-.021.147-.056.147-.088 0-.105-.294-1.449-.371-1.695-.014-.049.025-.067.203-.095.403-.067 1.183-.158 1.201-.14.028.028.147.634.228 1.148.038.259.077.473.081.476.004.007.077 0 .161-.011l.151-.021-.025-.214a31.843 31.843 0 0 0-.193-1.229 37.558 37.558 0 0 1-.207-1.348c-.074-.613-.049-.56-.27-.56-.193 0-.196 0-.175.095zM34.624 13.469l.056.553c.021.231.067.641.105.91s.091.672.119.893c.028.221.063.469.074.55.021.161.042.172.252.13.095-.021.119-.053.228-.326.385-.963.942-2.136 1.026-2.164.025-.007.045.182.06.539.038.872.091 1.772.109 1.789a.505.505 0 0 0 .165-.011l.144-.024-.017-.147a35.86 35.86 0 0 1-.045-1.467l-.025-1.32h-.392l-.175.287a14.788 14.788 0 0 0-.837 1.698c-.095.238-.182.431-.196.431-.038 0-.203-1.327-.263-2.146l-.025-.305h-.378l.017.13zM37.698 13.458c-.011.014-.028.63-.038 1.369l-.017 1.337.228-.074c.228-.074.231-.074.399-.354.378-.634 1.131-1.719 1.138-1.646.007.056.004.102-.126 1.106-.067.532-.123.984-.123 1.008 0 .021.06.038.14.038.077 0 .14-.014.14-.032 0-.088.294-1.926.364-2.262l.081-.396-.179-.018c-.175-.021-.182-.018-.315.126-.238.259-.756.973-1.061 1.47-.165.263-.312.49-.329.501s-.032-.081-.032-.203c.004-.364.063-1.607.088-1.8l.025-.182-.182-.011c-.098-.007-.189 0-.2.018zM29.877 13.532c-.49.053-.627.095-.795.242-.284.249-.347.704-.168 1.225.172.501.403.791.767.959.179.084.2.105.182.182a31.78 31.78 0 0 0-.126.837c-.056.413-.119.83-.14.924a1.103 1.103 0 0 0-.024.186.948.948 0 0 0 .189-.074c.207-.091.168.035.364-1.208.063-.396.133-.735.154-.756.056-.056.546-.168.578-.133.032.039.221.714.319 1.152s.077.406.252.354c.13-.035.151-.053.14-.13a50.999 50.999 0 0 0-.494-1.94 43.304 43.304 0 0 1-.312-1.26l-.133-.595-.175-.007c-.095 0-.354.018-.578.042zm.48.497c.067.301.207.837.284 1.106.046.172.081.319.07.326a2.849 2.849 0 0 1-.392.088c-.469.091-.578.07-.784-.165-.263-.298-.392-.847-.259-1.096.102-.193.203-.245.588-.298.49-.067.469-.07.494.039z"/>
      <path d="M30.287 14.932c.014.028.028.053.035.053s.014-.024.014-.053c0-.028-.014-.053-.035-.053-.017 0-.024.024-.014.053zM30.318 15.055c.011.018.028.035.038.035.007 0 .014-.018.014-.035 0-.021-.017-.035-.038-.035-.017 0-.024.014-.014.035zM39.053 13.514c0 .018.017.035.035.035.025 0 .025.021 0 .07-.056.102-.025.084.063-.035l.081-.105h-.091c-.049 0-.088.014-.088.035zM31.197 13.567c.014.028.028.053.035.053s.014-.024.014-.053c0-.028-.014-.053-.035-.053-.017 0-.024.024-.014.053zM26.967 13.969c-.361.063-.833.182-.833.21 0 .084.504 1.533.9 2.591.252.665.522 1.411.606 1.663.081.249.161.469.175.483.032.035.242-.067.266-.13.021-.056-.186-.739-.392-1.295-.084-.231-.154-.431-.154-.445s.112-.07.249-.123c.511-.2.704-.501.704-1.082-.003-.553-.221-1.18-.532-1.533a1.063 1.063 0 0 0-.987-.34zm.638.61c.259.168.49.707.49 1.127 0 .27-.056.424-.203.546-.105.088-.448.238-.546.238-.07 0-.711-1.779-.672-1.873.007-.021.105-.06.217-.084.116-.024.224-.053.242-.06.095-.035.347.021.473.105z"/>
      <path d="M27.43 14.813c0 .018.017.024.035.014.021-.011.046.004.056.031.011.031.038.056.06.056.017 0 .007-.031-.028-.07-.07-.077-.123-.091-.123-.031zM27.64 15.02c.021.039.046.07.056.07.007 0 0-.031-.021-.07s-.046-.07-.056-.07c-.007 0 0 .031.021.07zM25.875 14.337c.014.028.028.053.035.053s.014-.024.014-.053c0-.028-.014-.053-.035-.053-.017 0-.024.024-.014.053zM35.622 14.389c-.021.039-.028.07-.021.07.011 0 .035-.031.056-.07s.028-.07.021-.07c-.011 0-.035.031-.056.07zM38.437 14.509c-.074.105-.151.182-.168.172-.017-.014-.021-.004-.007.018.014.024.011.042-.007.042-.021 0-.042.024-.056.053-.042.116.045.042.193-.165.179-.252.214-.308.196-.308-.007 0-.074.084-.151.189zM31.368 14.46a.535.535 0 0 1 .028.13c0 .024.017.046.035.046.038 0 0-.179-.053-.228-.024-.024-.028-.007-.011.053zM25.931 14.502l.116.35c.056.172.105.301.112.294.021-.018-.2-.686-.224-.686-.011 0-.011.021-.003.042zM28.515 14.558c0 .042-.014.077-.032.077-.014 0 .024.154.088.34.063.189.116.375.119.413 0 .039.032.098.07.133.042.035.063.081.049.105-.014.021-.014.031 0 .021.014-.014.112.067.221.175s.151.14.091.07a3.02 3.02 0 0 1-.182-.252c-.042-.07-.095-.13-.112-.13s-.028-.011-.024-.028c.003-.014-.042-.175-.102-.357s-.119-.396-.13-.469c-.024-.158-.056-.21-.056-.098zM24.205 14.575c-.273.077-.504.322-.599.634-.067.214-.056.928.017 1.281.224 1.064 1.008 2.643 1.653 3.319.284.305.438.392.676.392.319 0 .634-.308.781-.77.105-.326.126-.903.053-1.351-.123-.718-.627-1.947-1.075-2.619-.459-.693-1.015-1.019-1.505-.886zm.763.693c.172.109.452.434.637.753.326.546.704 1.488.812 2.027.06.301.053.77-.017 1.005-.067.231-.263.462-.42.504-.441.109-1.106-.714-1.649-2.041-.252-.627-.347-1.008-.347-1.463-.003-.343.007-.403.084-.557a.8.8 0 0 1 .179-.242c.193-.137.483-.133.721.014z"/>
      <path d="M25.126 15.79c.067.088.154.217.2.287a.533.533 0 0 0 .095.133c.035 0-.151-.284-.28-.427l-.137-.151.123.158zM25.483 16.347c.032.056.042.112.028.126-.014.017-.003.017.017.003.035-.021.035-.049-.007-.13-.032-.056-.063-.102-.074-.102-.007 0 .007.046.035.102zM25.578 16.508c0 .017.028.091.067.158s.067.105.067.088c0-.021-.028-.091-.067-.158s-.067-.109-.067-.088zM25.959 17.418c0 .017.017.06.035.088s.035.035.035.017c0-.021-.017-.06-.035-.088s-.035-.038-.035-.017zM26.029 17.712a.08.08 0 0 0 .035.056c.021.011.035.007.035-.014 0-.017-.014-.046-.035-.056-.017-.011-.035-.007-.035.014zM9.714 14.806c.028.021.053.053.053.074 0 .053.024.053.105.011.084-.049.07-.067-.088-.095-.088-.018-.109-.014-.07.011zM36.284 14.862c-.004.028-.007.074-.011.095-.004.024-.017.056-.038.07s-.007.028.028.028c.045 0 .06-.028.06-.123 0-.119-.032-.172-.038-.07zM40.307 14.887c-.119.042-.119.049-.025.368l.077.256-.231.256-.228.256.063.084c.035.049.07.081.081.07.007-.011.137-.158.287-.329l.273-.308-.081-.333c-.042-.179-.091-.333-.102-.34s-.063.004-.116.021zM39.883 14.901c-.038.042-.028.119.028.175.028.028.07.119.091.2s.045.13.053.112c.021-.056-.14-.515-.172-.487z"/>
      <path d="M40.842 14.988c-.074.028-.081.049-.06.165.011.07.032.214.042.315l.025.189-.224.224c-.221.224-.221.224-.151.294.067.07.07.07.357-.221l.287-.291-.032-.189a31.06 31.06 0 0 1-.056-.361c-.021-.172-.045-.186-.189-.126zM26.18 15.244c.011.028.038.112.056.186a.752.752 0 0 0 .077.186c.035.046.035.046.021 0-.063-.221-.137-.42-.154-.42-.011 0-.011.021 0 .049zM33.399 15.44c.035.039.07.07.077.07.004 0 .011-.031.011-.07 0-.049-.025-.07-.077-.07-.07 0-.074.004-.011.07zM21.6 15.471a1.143 1.143 0 0 0-.557.361c-.091.102-.172.217-.182.259-.011.046.053.245.161.508.102.238.186.438.193.445.003.003.042-.095.084-.221.13-.399.277-.567.578-.651.305-.088.637.179.816.651.137.357.165.564.116.809-.049.235-.186.403-.427.525-.091.046-.168.102-.168.119 0 .056.294.63.322.63.014 0 .13-.056.259-.123.364-.193.585-.158.851.144.081.095.21.298.284.452.564 1.169.144 2.125-.767 1.747-.067-.028-.126-.046-.13-.038-.007.007.07.217.172.466l.186.452.224-.003c.263-.003.392-.06.581-.252.284-.291.378-.627.354-1.246-.021-.557-.095-.83-.357-1.376-.287-.588-.665-.956-.987-.956-.133 0-.158-.056-.084-.193.081-.151.074-.732-.011-1.033a4.436 4.436 0 0 0-.235-.585c-.186-.389-.438-.683-.693-.812a.988.988 0 0 0-.581-.077zM31.638 15.475c0 .028.014.091.028.14.021.07.028.074.028.018a.406.406 0 0 0-.028-.14c-.017-.042-.028-.049-.028-.018zM26.348 15.713a.217.217 0 0 0 .032.109c.028.06.067.196.084.319.003.032.032.091.063.137s.049.105.038.13c-.011.028 0 .049.024.049.028 0 .038.038.028.102s0 .095.017.084c.017-.011.024 0 .017.028-.011.028.007.081.038.116.038.049.042.06.007.038-.032-.017-.042-.014-.028.007.042.07.105.238.098.266-.003.017.011.021.028.011.017-.014.053.038.077.109.024.074.081.203.126.287.042.084.081.179.081.21s.024.088.053.123c.028.038.053.063.053.053 0-.028-.203-.578-.469-1.274-.361-.931-.368-.952-.368-.9zM29.383 16.13c.081.074.147.158.147.186 0 .046.003.046.035 0 .049-.074.042-.14-.011-.14a.645.645 0 0 1-.182-.091l-.14-.088.151.133zM31.788 16.175c.011.017.028.035.038.035.007 0 .014-.017.014-.035 0-.021-.017-.035-.038-.035-.017 0-.024.014-.014.035zM30.644 16.245c.042.042.077.098.077.13s.007.049.017.038c.011-.011.007-.067-.003-.126-.017-.084-.042-.112-.095-.112-.074 0-.074 0 .003.07zM38.864 16.263c-.011.028-.004.053.014.053.021 0 .035-.024.035-.053s-.007-.053-.014-.053-.021.024-.035.053zM40.209 16.368c-.035.042-.032.056.011.074a.251.251 0 0 0 .116.007c.049-.011.049-.017-.011-.074-.063-.056-.077-.056-.116-.007z"/>
      <path d="M22.062 16.448c.07.021.308.266.308.319 0 .042.098.249.112.238.007-.007-.003-.06-.024-.116s-.038-.105-.035-.112c.007-.017-.186-.266-.245-.312a.22.22 0 0 0-.123-.042c-.063.003-.063.007.007.024zM31.855 16.452a.452.452 0 0 1 .035.147c.028.182.053.284.077.308.014.011.014-.028 0-.084a2.37 2.37 0 0 1-.053-.326c0-.042-.021-.077-.042-.077-.017 0-.028.014-.017.032zM23.358 16.644c-.038.095.007.294.109.487a.652.652 0 0 0 .098.154 1.482 1.482 0 0 0-.07-.291 4.078 4.078 0 0 1-.098-.347c-.011-.067-.014-.067-.038-.003zM36.399 16.805c-2.682.371-6.172 1.491-8.077 2.594-1.456.84-2.853 1.985-3.522 2.885-.833 1.12-1.432 2.71-1.432 3.795v.238l.396.021c.931.056 2.276.067 2.93.028.571-.035 1.908-.161 2.006-.189.017-.003-.046-.06-.14-.119a2.845 2.845 0 0 1-.714-.721c-.28-.431-.403-.949-.368-1.53.049-.844.378-1.8.872-2.517.536-.784 1.831-1.782 3.207-2.472 1.316-.658 3.648-1.351 5.014-1.491.392-.042.417-.049.417-.119 0-.042.032-.165.067-.273l.07-.2-.13.003c-.07.003-.34.032-.595.067zM20.865 16.928c.014.038.035.098.042.13.011.035.032.063.049.063s.007-.053-.024-.116c-.067-.133-.105-.175-.067-.077zM31.988 16.98c-.003.028.017.154.042.28.038.193.053.228.112.217.154-.028.655-.196.616-.21-.025-.007-.161.028-.305.077-.322.112-.368.112-.371.011-.004-.098-.091-.445-.095-.375zM33.662 16.98c0 .017.017.035.038.035.017 0 .025-.017.014-.035-.011-.021-.028-.035-.038-.035-.007 0-.014.014-.014.035zM22.497 17.103c0 .038.014.095.032.123.032.046.035.046.032 0a.367.367 0 0 0-.032-.123l-.032-.07v.07zM31.456 17.667a2.609 2.609 0 0 1-.333.098c-.038.007-.067.021-.06.032.003.014.007.032.007.042 0 .007.067-.011.151-.042.081-.032.249-.091.375-.137.126-.042.203-.081.175-.081s-.172.038-.315.088zM37.058 17.786c.021.038.045.07.056.07.007 0 0-.032-.021-.07s-.045-.07-.056-.07c-.007 0 0 .032.021.07zM23.809 17.954c-.014.024-.007.042.014.042s.032.014.017.032c-.011.017-.003.042.017.056.017.011.035.038.035.056 0 .021-.017.024-.042.011-.021-.014.011.049.077.137.063.091.123.158.13.151.011-.007-.038-.13-.102-.27-.077-.165-.13-.242-.147-.214zM27.22 18.083c.038.088.067.161.067.168 0 .003.014.053.035.105.021.056.038.116.038.137s.011.032.021.017c.028-.028-.168-.585-.203-.585-.014 0 .003.07.042.158zM40.699 17.94c0 .011.032.035.07.056s.07.028.07.021c0-.011-.032-.035-.07-.056s-.07-.028-.07-.021zM29.67 18.318c-.322.137-.434.2-.41.228.011.011.753-.294.788-.322.007-.007 0-.017-.017-.028s-.179.046-.361.123zM41.105 18.251c.038.049.077.081.088.074.014-.007.042.011.067.038s.032.053.017.053c-.014 0 .014.042.063.091a.46.46 0 0 1 .112.158c.014.035.038.067.06.067.045 0-.06-.172-.154-.256-.038-.032-.06-.06-.042-.06.038 0-.13-.175-.21-.217-.063-.035-.063-.032 0 .053zM21.964 18.398c-.021.021.298.676.361.735.017.017-.042-.123-.14-.315a6.938 6.938 0 0 1-.186-.396c-.011-.024-.024-.038-.035-.024zM18.292 18.78c0 .028.035.063.081.074a.65.65 0 0 1 .182.119c.06.049.035.014-.053-.077-.161-.172-.21-.2-.21-.116zM21.107 18.822c.011.035.126.508.259 1.05l.238.98.574.69c.315.378.578.683.581.679s.014-.112.024-.245l.017-.235-.48-.581-.48-.578-.193-.809-.189-.809-.133-.084c-.2-.126-.245-.14-.221-.06z"/>
      <path d="M35.517 18.822a5.849 5.849 0 0 0-3.627 1.635c-1.106 1.064-1.691 2.339-1.702 3.718-.003.522.046.896.168 1.285.088.273.105.291.252.252.067-.021.077-.038.06-.119-.017-.077-.003-.102.07-.133.123-.056.123-.056.165.067.024.07.056.102.095.095.06-.014.07-.098.024-.224-.021-.07.017-.091.424-.266.501-.217.466-.224.518.084.014.102.038.133.088.133.077 0 .084-.063.038-.308-.028-.14-.025-.154.063-.196a13.219 13.219 0 0 1 1.082-.371c.021 0 .045.084.06.182.035.294.045.315.126.27.07-.035.074-.144.014-.438-.014-.07.017-.084.396-.182.413-.109 1.113-.252 1.229-.252.038 0 .063.024.063.06 0 .175.007.189.081.151.045-.024.07-.074.07-.14 0-.112-.011-.109.476-.172.137-.017.308-.067.385-.105l.137-.077-.315.021c-.172.011-.396.028-.494.038l-.179.021-.025-.413-.021-.417.091-.07.669-.518a8.3 8.3 0 0 1 .606-.445c.074 0 .21.819.21 1.267v.273l.091-.042c.091-.042.091-.046.067-.343a12.687 12.687 0 0 0-.147-1.089c-.017-.088-.007-.091.172-.112.102-.014.319-.024.483-.024h.301l.077.287c.045.161.095.375.112.48.042.224.056.245.126.175.045-.049.045-.091-.021-.41a4.927 4.927 0 0 0-.105-.445l-.035-.088h.245c.431 0 .949.074 1.022.147.063.063.067.06.186-.014.067-.046.123-.088.123-.098s-.045-.035-.102-.056a.191.191 0 0 1-.123-.14c-.088-.347-.455-.956-.809-1.337l-.228-.245.172-.074c.098-.038.189-.074.21-.074.063 0 .48.438.669.704.182.256.49.84.49.931 0 .067.053.056.158-.035l.091-.077-.203-.403c-.245-.487-.427-.735-.784-1.089-.592-.585-1.439-1.015-2.314-1.166a6.745 6.745 0 0 0-1.218-.07zm.956.29c.06.021.06.028-.017.06-.06.028-.14.021-.308-.024l-.228-.063h.245a1.3 1.3 0 0 1 .308.028zm-.536.144.228.06-.245.119-.242-.14c-.235-.137-.238-.14-.105-.119.074.014.238.049.364.081zm1.383.046c.175.056.424.158.557.224.238.119.627.364.609.382-.007.003-.095.042-.2.081l-.186.077-.343-.224a6.29 6.29 0 0 0-1.103-.546c-.063-.024-.06-.032.035-.084.123-.063.2-.053.63.091zm-1.943.308c0 .014-.074.042-.165.063-.179.046-.217.024-.221-.137 0-.049-.011-.151-.021-.228l-.021-.14.214.21c.116.116.214.217.214.231zm-.879-.224-.161.28c-.112.193-.133.207-.375.231l-.207.021.102-.109c.091-.095.679-.553.707-.553.007 0-.021.06-.067.13zm.333.052c.038.343.045.329-.189.368-.116.017-.21.024-.21.014 0-.035.333-.564.354-.564.011 0 .032.084.045.182zm.686-.059c.186.095.217.14.109.168-.045.011-.109-.028-.2-.119-.158-.161-.144-.168.091-.049zm1.198.108c.413.151 1.183.567 1.183.641 0 .014-.179.088-.399.161l-.399.14-.329-.315a5.462 5.462 0 0 0-.49-.434c-.095-.067-.168-.13-.168-.144 0-.032.214-.137.287-.137.032-.003.175.038.315.088zm-.571.284c.287.207.784.679.749.711-.038.035-.469.175-.532.175-.032 0-.116-.109-.193-.238a5.344 5.344 0 0 0-.312-.473c-.095-.13-.168-.245-.158-.252a.86.86 0 0 1 .2-.084 2.1 2.1 0 0 1 .245.161zm-2.472.01c-.081.077-.182.14-.228.14-.098 0-.056-.046.172-.179.224-.13.231-.126.056.038zm-.326-.056c0 .028-.287.2-.308.182-.025-.028-.017-.032.151-.119.154-.081.158-.084.158-.063zm2.322.224c.193.249.494.739.469.763a6.66 6.66 0 0 1-.655.189c-.011 0-.021-.084-.021-.189-.004-.238-.091-.389-.266-.459-.116-.046-.133-.067-.137-.175-.004-.067-.007-.14-.011-.165-.004-.032.28-.137.441-.165.014 0 .095.088.179.2zm-.781.063c0 .123.06.224.133.224.032 0 .109.032.168.067.287.175.231.763-.105 1.117-.228.245-.585.343-.844.238l-.14-.06.077.081c.119.116.469.133.672.028.084-.042.154-.07.161-.063.004.007.017.105.032.221l.025.214-.343.081a27.14 27.14 0 0 0-.753.2 5.644 5.644 0 0 1-.441.119c-.042 0-.028-.084.105-.637.098-.424.109-.445.196-.455.119-.014.161-.168.045-.168-.07 0-.07-.007.028-.273.095-.252.371-.875.406-.91.017-.017.42-.102.518-.109.042-.003.06.021.06.088zm-.781.056c-.41.942-.599 1.512-.707 2.111-.035.193-.07.357-.074.364a9.017 9.017 0 0 1-.424.161c-.228.081-.497.182-.599.224l-.182.074.021-.098c.06-.27.095-.399.179-.648l.088-.277.105.109c.084.088.137.109.249.109.182 0 .399-.105.55-.27l.123-.13-.147.126c-.445.368-.83.182-.826-.392 0-.347.186-.637.504-.795.074-.035.217-.175.336-.326.116-.144.231-.28.259-.305s.154-.049.277-.056c.126-.007.242-.014.259-.017.014-.003.021.014.011.035zm-1.467.175a6.983 6.983 0 0 0-.963.994c-.147.196-.214.259-.277.259-.084 0-.081-.003.046-.179.312-.434 1.194-1.253 1.351-1.257.038 0-.017.067-.158.182zm.522.102a6.869 6.869 0 0 1-.462.536c-.165.165-.263.298-.294.399-.042.123-.067.147-.14.147-.049 0-.2.011-.333.024l-.245.021.165-.207a8.093 8.093 0 0 1 1.022-1.012c.196-.158.27-.193.375-.193h.133l-.221.284zm5.315.311c.266.298.508.707.634 1.061l.049.14-.147-.024a14.523 14.523 0 0 0-1.043-.091c-.077 0-.109-.042-.235-.312a6.53 6.53 0 0 0-.336-.592l-.189-.277.424-.154.424-.158.137.119c.074.067.203.196.284.287zm-1.268.182c.165.231.424.693.459.823.025.081.035.077-.683.13l-.165.011.063-.105c.095-.154 0-.34-.175-.34-.081 0-.102-.028-.203-.27a2.752 2.752 0 0 1-.102-.273c.081-.032.578-.186.609-.189.025-.003.112.095.196.214zm-.858.281c.161.396.161.385.035.571l-.116.172-.473.077c-.259.046-.497.088-.529.095-.049.014-.06-.032-.077-.259-.021-.266-.017-.277.098-.473.067-.109.126-.207.137-.214.014-.014.721-.207.798-.217.011-.003.07.112.126.249zm-4.019.546c0 .056-.038.193-.084.308a5.48 5.48 0 0 0-.182.609c-.056.221-.105.41-.112.42s-.028-.011-.046-.046c-.081-.144-.336-.007-.305.165.014.077-.014.098-.364.259l-.382.179.024-.13a4.964 4.964 0 0 1 .543-1.533l.147-.256.214-.017c.119-.011.263-.028.319-.032.228-.028.228-.028.228.074zm-1.141.343c-.252.497-.469 1.201-.469 1.519 0 .081-.024.116-.109.158-.06.032-.116.049-.13.038-.038-.042.067-.564.186-.924.144-.431.49-1.117.574-1.138.032-.011.074-.017.098-.021.021 0-.046.165-.151.368zm4.814.14a4.935 4.935 0 0 1-.42.347l-.336.259-.021-.27c-.007-.147-.014-.273-.007-.28a8.88 8.88 0 0 1 .784-.144l.084-.003-.084.091zm-.942.291c0 .112.011.252.021.308.021.098.004.116-.238.273-.459.308-.963.539-1.358.63l-.088.021.011-.308c.007-.168.025-.396.035-.501l.025-.189.263-.084a27.34 27.34 0 0 1 1.306-.354c.014-.003.025.088.025.203zm-1.789.563a6.147 6.147 0 0 0-.028.48l-.004.221h-.189c-.315 0-.634-.119-.812-.305-.088-.088-.151-.175-.144-.196.004-.017.088-.067.182-.105.21-.084 1.015-.371 1.019-.364.004.003-.011.126-.025.27zm1.824.49c0 .371-.004.385-.077.399-.045.011-.287.06-.543.109-.252.049-.595.126-.76.172l-.301.084v-.189c0-.175.007-.189.098-.21.357-.077.963-.35 1.355-.606.116-.077.214-.14.221-.14.004-.003.007.168.007.382zm-3.274-.112c.067.056.07.095.06.728l-.014.669-.448.196c-.385.165-.455.182-.469.133-.067-.235-.102-.539-.105-.914l-.003-.438.438-.217c.242-.119.445-.217.455-.217s.049.024.088.06zm.736.445c.098.032.287.067.427.077l.249.021.014.189.011.186-.263.084c-.144.046-.413.137-.599.203l-.34.123-.021-.126a4.683 4.683 0 0 1 0-.886l.021-.126.165.098c.088.053.242.126.336.158zm-1.863.497c.014.266.046.581.074.704l.049.221-.105.053c-.056.032-.112.046-.123.035-.056-.056-.123-.483-.14-.9l-.021-.48.102-.056c.056-.028.112-.053.123-.056.011 0 .032.217.042.48z"/>
      <path d="M34.117 20.831a.228.228 0 0 0 .021.347c.053.042.112.074.137.074.091 0 .228-.144.228-.242 0-.21-.242-.322-.385-.179zM41.525 18.829c.021.014.053.06.067.105s.032.077.038.067c.032-.028-.056-.2-.098-.2-.032 0-.035.011-.007.028zM20.827 18.937c.014.017.003.038-.021.046-.024.011-.011.024.028.035.06.014.07.007.06-.046-.011-.038-.035-.067-.053-.067s-.024.014-.014.032zM23.211 18.941c.011.017.028.035.038.035.007 0 .014-.017.014-.035 0-.021-.017-.035-.038-.035-.017 0-.024.014-.014.035zM28.025 19.123c-.319.179-.354.203-.329.242.011.021.063.007.13-.038.063-.038.186-.112.28-.161.091-.046.165-.102.165-.119 0-.053-.038-.042-.245.077zM24.464 19.14c.046.077.165.361.165.392 0 .081.081.207.123.189.024-.007.056.017.07.056.011.042.038.067.056.056.017-.014.046.017.067.067.017.053.053.088.077.084.024-.007.046.003.042.024-.003.017.024.063.06.095.13.123.063-.003-.091-.175a3.62 3.62 0 0 1-.476-.683c-.038-.07-.077-.13-.088-.13s-.011.011-.003.024zM20.869 20.24c.158.578.305 1.071.322 1.092a47.172 47.172 0 0 0 1.127 1.372c.021.014.035-.077.035-.238v-.259l-.487-.592-.49-.592-.406-1.681-.158-.077a1.46 1.46 0 0 0-.196-.081c-.021 0 .084.448.252 1.054zM18.964 19.372c.074.067.126.13.116.14-.011.014-.007.017.003.011.014-.011.098.063.193.158.095.098.172.161.172.147 0-.042-.543-.571-.581-.571-.017 0 .028.053.098.116zM23.613 19.379c0 .011.021.056.049.098s.084.182.13.312c.084.245.14.308.067.074-.077-.252-.245-.581-.245-.483zM16.636 19.921c-.011.038-.003.07.014.07s.032.024.032.056.017.042.042.028c.024-.017.032-.007.021.028-.014.028-.007.074.011.102.038.06.042-.077.011-.245-.024-.123-.102-.144-.13-.038zM26.712 20.026c-.011.017-.007.035.014.035a.08.08 0 0 0 .056-.035c.011-.021.007-.035-.014-.035-.017 0-.046.014-.056.035zM23.901 20.131a1.34 1.34 0 0 0 .024.228c.021.091.032.109.032.053a1.34 1.34 0 0 0-.024-.228c-.021-.091-.032-.109-.032-.053zM26.568 20.173l-.067.081.081-.067a.406.406 0 0 0 .077-.081c0-.028-.028-.007-.091.067zM19.867 20.243c0 .007.081.088.175.175.098.088.175.147.175.133s-.077-.095-.175-.175a1.036 1.036 0 0 0-.175-.133zM26.071 20.436c-.067.014-.074.024-.038.067s.032.046-.024.028c-.053-.017-.056-.014-.014.017.038.024.07.024.119-.011.074-.046.119-.13.067-.123-.014.003-.063.014-.109.021zM20.357 20.702c0 .014.063.091.14.168s.14.13.14.112c0-.017-.063-.095-.14-.168s-.14-.126-.14-.112zM6.672 20.853c0 .038.011.049.021.021.011-.024.007-.056-.003-.067-.011-.014-.021.007-.018.046zM16.898 21.042c0 .049.007.067.017.042a.187.187 0 0 0 0-.088c-.011-.021-.017-.003-.017.046zM20.708 21.059c.028.038.063.077.074.088s.038.07.063.133c.028.063.053.109.06.102.032-.028-.088-.256-.168-.322-.081-.07-.081-.07-.028 0zM22.682 21.094c.011.028.003.053-.014.053-.021 0 .024.077.095.172.074.091.14.165.147.158s-.003-.032-.021-.056a1.402 1.402 0 0 1-.095-.214c-.035-.091-.077-.165-.098-.165s-.028.024-.014.053zM16.926 21.273c0 .074.017.161.035.189.024.035.028-.003.014-.123-.028-.217-.049-.245-.049-.067zM6.745 21.532c0 .049.007.067.018.042a.187.187 0 0 0 0-.088c-.011-.021-.018-.003-.018.046zM21.019 21.591c.042.084.109.137.109.088 0-.017-.035-.06-.074-.098-.077-.067-.077-.067-.035.011zM17.003 21.707c0 .049.007.067.017.042a.187.187 0 0 0 0-.088c-.011-.021-.017-.003-.017.046zM6.777 21.763c0 .038.011.049.021.021.011-.024.007-.056-.003-.067-.011-.014-.021.007-.018.046zM21.163 21.731a.44.44 0 0 0 .105.137c.056.063.095.119.084.13-.007.007.028.042.081.077.095.063.098.063.046-.003-.151-.186-.315-.361-.315-.34zM17.038 21.934c0 .056.007.077.017.042a.264.264 0 0 0 0-.105c-.011-.021-.017.003-.017.063zM23.043 21.931c-.032.081-.032.249 0 .221.011-.014.042-.007.07.014.06.053.06-.049-.003-.196-.035-.088-.046-.095-.067-.038zM6.847 22.078c0 .038.011.049.021.021.011-.024.007-.056-.003-.067-.011-.014-.021.007-.018.046zM21.621 22.295c.067.074.126.13.133.126.017-.017-.186-.252-.221-.256-.014-.003.024.056.088.13zM6.882 22.214c0 .017.021.074.049.123s.049.07.049.053c0-.021-.021-.074-.049-.123s-.049-.074-.049-.053zM17.105 22.358c0 .038.011.049.021.021.011-.024.007-.056-.003-.067-.011-.014-.021.007-.017.046zM6.987 22.477c0 .028.014.077.032.105.042.063.042.007 0-.088-.021-.046-.032-.053-.032-.017zM21.793 22.512c0 .021.024.046.053.056.028.014.042.038.028.06-.011.021-.003.024.017.011.053-.032.053-.032-.028-.102-.038-.032-.07-.042-.07-.024zM17.14 22.568c0 .038.011.049.021.021.011-.024.007-.056-.003-.067-.011-.014-.021.007-.017.046zM21.933 22.663c0 .007.053.056.116.116l.112.102-.102-.116c-.098-.105-.126-.13-.126-.102zM7.155 22.887c.021.038.028.081.018.088-.007.011.007.038.038.063.045.038.045.028.014-.067-.021-.06-.053-.119-.074-.13-.021-.014-.021.003.003.046zM7.284 23.153c.011.035.032.053.042.042s0-.038-.024-.063c-.035-.032-.038-.028-.018.021zM7.368 23.345c0 .017.045.095.098.168a.589.589 0 0 1 .098.168c-.003.017.032.053.077.084.07.046.077.046.056-.003-.011-.032-.035-.053-.049-.049s-.024-.003-.021-.014a.633.633 0 0 0-.091-.147.464.464 0 0 1-.098-.161c0-.017-.014-.046-.035-.056-.018-.011-.035-.007-.035.011zM40.062 23.881c-.102.053-.14.098-.168.21-.035.123-.049.14-.116.123-.193-.056-.256-.056-.322-.011-.063.049-.053.056.133.116.116.035.2.081.2.109 0 .074-.235.63-.361.851-.14.252-.354.574-.504.76l-.116.147-.133-.046c-.07-.028-.126-.063-.123-.081.004-.014.074-.14.154-.273.081-.137.2-.361.266-.504.116-.256.361-.924.361-.991 0-.017-.042 0-.098.035-.07.053-.119.144-.179.326-.165.511-.641 1.414-.725 1.383-.025-.011-.175-.042-.333-.077-.161-.035-.298-.063-.301-.067-.004 0 .053-.168.126-.368.074-.203.147-.42.161-.483.025-.112.021-.112-.067-.074-.067.032-.105.095-.158.273-.038.13-.112.326-.161.438l-.091.207-.161-.024a4.682 4.682 0 0 0-.452-.021h-.291l.045-.158c.028-.088.045-.158.038-.158s-.053.014-.102.035c-.063.021-.095.067-.112.158-.025.14-.007.133-.536.193-.28.032-.518.091-.998.249-.581.193-1.586.501-2.104.644a2.545 2.545 0 0 0-.315.105c-.343.154-.539.217-.571.186-.021-.021-.07-.024-.112-.011-.06.017-.067.035-.032.074.046.056-.007.067-.063.011-.042-.042-.326-.011-.326.038s.511.445.777.599c.536.315 1.376.574 1.989.62 1.596.116 3.253-.515 4.432-1.691a8.18 8.18 0 0 0 .588-.641c.228-.305.55-.879.697-1.239.112-.27.326-1.001.298-1.026-.007-.007-.07.017-.14.056zm-2.906 2.122.287.021-.14.263c-.151.28-.56.84-.725.994l-.098.091-.245-.049a3.306 3.306 0 0 1-.252-.06c-.004-.007.07-.158.165-.34.091-.182.221-.459.28-.613s.13-.291.151-.305c.053-.032.203-.035.578-.003zm-.816.105c-.028.123-.445.987-.511 1.064-.035.042-.133.067-.329.081l-.284.021.011-.112c.004-.063.014-.312.017-.553l.011-.434.158-.032c.354-.063.76-.123.854-.126.091-.003.098.003.074.091zm1.726.017c.098.021.182.053.182.067 0 .06-.525.651-.756.858-.319.28-.574.469-.63.469a.46.46 0 0 1-.133-.038l-.088-.042.203-.231c.245-.277.522-.683.658-.959l.098-.207.14.021c.077.014.224.042.326.063zm-2.969.35c0 .14-.011.382-.021.536l-.025.284-.266.06c-.147.032-.284.06-.305.06-.077 0-.529-.83-.48-.879.028-.028.97-.305 1.054-.308.028-.003.042.07.042.249zm3.463-.213c.06.021.109.049.109.063 0 .07-.686.672-1.033.903-.284.189-.424.259-.263.13.249-.2.574-.529.816-.83.137-.168.252-.305.252-.305.004 0 .056.017.119.038zm-4.625.563c.06.123.165.312.235.427.067.112.123.214.119.228 0 .011-.154.095-.34.186l-.34.165-.123-.084c-.21-.144-.732-.732-.69-.774.028-.028.921-.361.973-.361.035-.003.098.077.165.214zm-1.166.396c.074.109.259.312.413.459.294.277.319.361.088.315-.263-.049-.823-.396-1.075-.665l-.084-.091.102-.035a3.19 3.19 0 0 0 .242-.105c.077-.035.151-.067.161-.067.011-.003.081.084.154.189zm2.888.217c0 .038-.329.469-.42.553l-.077.07.025-.298c.014-.165.032-.308.042-.326.007-.014.109-.024.224-.024.112 0 .207.011.207.024zm.536.032c.07.011.13.032.13.046 0 .06-.854.595-.956.599-.017 0 .038-.084.126-.186.084-.098.203-.259.266-.35.098-.147.126-.165.207-.151.053.011.154.028.228.042zm-1.145.087a2.27 2.27 0 0 0-.021.315c0 .116-.014.207-.028.207-.035 0-.441-.49-.42-.508.017-.021.382-.116.445-.119.035-.003.042.024.025.105zm1.569.042c.06.046.053.056-.088.137-.179.102-.494.245-.508.228-.007-.007.081-.081.196-.161.116-.084.228-.175.249-.2.049-.06.074-.06.151-.003zm-1.982.308.221.277h-.203a1.656 1.656 0 0 1-.7-.158l-.2-.091.154-.088c.151-.088.452-.221.49-.221.011 0 .116.126.238.28zm-.924.168c.014.017-.011.024-.049.014-.081-.021-.091-.046-.021-.046.028 0 .06.014.07.032zM7.753 23.895c0 .007.102.144.228.301.287.357.298.333.014-.038-.2-.259-.242-.305-.242-.263zM29.922 24.123c0 .049.007.067.017.042a.187.187 0 0 0 0-.088c-.011-.021-.017-.003-.017.046z"/>
      <path d="M8.212 24.518c.007.003.046.032.084.06.067.049.067.049.021-.011-.024-.032-.063-.06-.084-.06s-.028.003-.021.011zM8.454 24.697c0 .007.028.035.063.06.053.046.056.042.011-.014s-.074-.074-.074-.046zM8.629 24.893c0 .017.018.035.039.035.018 0 .024-.017.014-.035-.011-.021-.028-.035-.039-.035-.007 0-.014.014-.014.035zM8.727 24.987c.021.007.031.035.018.056-.011.024-.007.032.007.014.018-.014.063.003.102.035.053.046.049.035-.011-.035-.049-.053-.102-.095-.123-.091-.021 0-.018.011.007.021zM9.003 25.257a.555.555 0 0 0 .133.126c.039.024.014-.014-.049-.084-.14-.147-.175-.165-.084-.042zM30.059 25.299c0 .038.011.049.021.021.011-.024.007-.056-.003-.067-.011-.014-.021.007-.017.046zM30.094 25.439c0 .038.011.049.021.021.011-.024.007-.056-.003-.067-.011-.014-.021.007-.017.046zM9.311 25.523c.035.038.07.07.081.07s-.011-.032-.046-.07c-.035-.038-.07-.07-.081-.07s.011.032.046.07zM30.129 25.579c0 .038.011.049.021.021.011-.024.007-.056-.003-.067-.011-.014-.021.007-.017.046zM9.473 25.653c.028.046.063.081.084.081s.081.042.133.091c.056.049.105.084.116.077.007-.011-.053-.07-.137-.133-.266-.21-.252-.203-.196-.116zM30.15 25.712c-.014.035-.017.074-.007.084.032.032.06-.021.046-.088-.011-.06-.014-.06-.038.003zM9.907 25.978c.035.038.07.07.081.07s-.011-.032-.046-.07c-.035-.038-.07-.07-.081-.07s.011.032.046.07zM10.029 26.073c0 .014.049.056.105.088.137.077.137.053 0-.042-.056-.042-.105-.063-.105-.046zM22.994 26.206c-.032.07-.028.088.011.088.028 0 .049-.035.049-.088 0-.109-.007-.109-.06 0zM10.449 26.342c0 .011.049.042.105.074.06.032.105.046.105.038 0-.011-.046-.042-.105-.074-.056-.032-.105-.046-.105-.038zM10.729 26.517c0 .007.024.024.056.035.028.011.042.007.031-.014-.021-.035-.088-.049-.088-.021zM30.388 27.438a43.107 43.107 0 0 1-5.042.893l-.385.046.543.147c1.617.434 2.815.536 4.569.392.802-.063 2.587-.35 2.664-.424.007-.011-.137-.091-.326-.182a5.303 5.303 0 0 1-1.138-.746c-.168-.14-.326-.252-.35-.252-.024.003-.266.06-.536.126zM13.149 27.631a.616.616 0 0 1 .053.126c.018.098.049.084.049-.021 0-.074-.024-.123-.074-.147-.067-.038-.07-.035-.028.042zM24.664 28.425c0 .017.024.038.053.053.032.011.053 0 .053-.032 0-.028-.024-.053-.053-.053s-.053.014-.053.032zM24.909 28.618c0 .007.024.024.056.035.028.011.042.007.032-.014-.021-.035-.088-.049-.088-.021z"/>
    </symbol>
    <symbol id="icon-vector" viewBox="0 0 32 32">
      <path d="m14 19.724 8.862-8.862a.668.668 0 0 1 .943.943l-9.333 9.333a.668.668 0 0 1-.943 0l-4-4a.668.668 0 0 1 .943-.943l3.529 3.529z"/>
    </symbol>
  </defs>
</svg>
